<?xml version="1.0" standalone="no"?>
<!DOCTYPE svg PUBLIC "-//W3C//DTD SVG 20010904//EN"
 "http://www.w3.org/TR/2001/REC-SVG-20010904/DTD/svg10.dtd">
<svg version="1.0"
    xmlns="http://www.w3.org/2000/svg" width="256.000000pt" height="256.000000pt" viewBox="0 0 256.000000 256.000000" preserveAspectRatio="xMidYMid meet">
    <metadata>
Created by potrace 1.11, written by Peter Selinger 2001-2013
    </metadata>
    <g transform="translate(0.000000,256.000000) scale(0.100000,-0.100000)" fill="#000000" stroke="none">
        <path d="M894 2425 c-70 -15 -136 -46 -178 -84 -16 -14 -103 -99 -193 -187
l-163 -162 -4 -53 c-8 -102 -11 -106 -115 -119 l-63 -8 -89 -92 c-49 -51 -89
-98 -89 -106 0 -25 23 -53 135 -164 84 -84 116 -110 136 -110 20 0 47 21 108
81 93 92 104 109 107 164 1 22 3 45 3 52 2 22 61 68 96 74 44 7 81 -10 130
-62 21 -23 49 -45 62 -50 56 -21 72 -12 180 94 103 101 104 102 98 140 -3 22
-19 55 -35 75 -30 39 -55 118 -39 128 5 3 7 9 4 14 -5 8 101 110 145 139 14 9
33 23 44 33 10 9 47 31 82 50 74 37 90 66 57 100 -51 51 -292 81 -419 53z"/>
        <path d="M2076 2403 c-1 -1 -20 -5 -42 -9 -94 -14 -230 -103 -301 -196 -44
-59 -90 -205 -85 -273 12 -176 10 -218 -14 -262 -13 -25 -33 -53 -43 -62 -19
-17 -17 -20 94 -129 l114 -112 31 30 c60 58 116 75 192 55 25 -6 73 -13 105
-14 151 -6 313 81 402 216 36 53 38 72 13 103 -14 17 -22 20 -42 12 -14 -5
-88 -26 -164 -47 l-140 -38 -20 25 c-12 14 -29 36 -38 49 -9 13 -36 51 -61 84
-24 34 -43 69 -41 80 10 68 16 114 19 142 8 76 -13 65 238 134 70 20 122 39
127 48 4 9 3 31 -4 51 -20 61 -146 111 -289 114 -27 1 -49 0 -51 -1z"/>
        <path d="M1026 1618 l-109 -110 91 -91 c112 -113 354 -360 747 -762 165 -169
348 -355 406 -415 58 -59 115 -110 125 -112 10 -3 30 1 44 8 41 20 195 186
196 212 1 12 -3 22 -9 22 -6 0 -8 3 -4 6 6 7 -77 90 -498 499 -147 143 -332
323 -410 400 -217 212 -443 431 -457 443 -10 8 -39 -15 -122 -100z"/>
        <path d="M933 962 c-67 -64 -201 -193 -298 -287 -328 -315 -315 -300 -306
-358 2 -13 164 -173 188 -186 12 -6 30 -11 40 -11 10 0 170 155 375 362 l358
362 -38 40 c-55 58 -193 196 -195 196 -1 0 -57 -53 -124 -118z"/>
    </g>
</svg>
